<?xml version="1.0" standalone="no"?>
<!DOCTYPE svg PUBLIC "-//W3C//DTD SVG 20010904//EN"
 "http://www.w3.org/TR/2001/REC-SVG-20010904/DTD/svg10.dtd">
<svg version="1.0" xmlns="http://www.w3.org/2000/svg"
 width="1367.000000pt" height="1367.000000pt" viewBox="0 0 1367.000000 1367.000000"
 preserveAspectRatio="xMidYMid meet">
<metadata>
Created by potrace 1.14, written by Peter Selinger 2001-2017
</metadata>
<g transform="translate(0.000000,1367.000000) scale(0.100000,-0.100000)"
fill="#000000" stroke="none">
<path d="M8060 13664 c0 -2 19 -34 41 -71 74 -121 175 -312 218 -413 13 -30
31 -73 41 -95 81 -182 190 -549 215 -726 3 -24 8 -51 10 -59 2 -8 7 -37 10
-65 3 -27 7 -66 10 -85 24 -178 24 -571 0 -758 -19 -149 -29 -214 -51 -327
-29 -147 -80 -351 -119 -470 -14 -44 -28 -87 -30 -95 -13 -55 -135 -372 -196
-510 -50 -113 -210 -433 -266 -535 -28 -49 -63 -112 -78 -140 -128 -230 -384
-633 -582 -915 -28 -41 -75 -109 -104 -150 -54 -78 -458 -621 -469 -630 -3 -3
-41 -50 -83 -105 -43 -55 -83 -107 -90 -115 -7 -8 -37 -47 -67 -85 -30 -39
-57 -72 -60 -75 -3 -3 -68 -84 -145 -180 -76 -96 -248 -308 -380 -470 -268
-328 -657 -804 -683 -835 -10 -11 -66 -82 -127 -157 -60 -76 -114 -138 -120
-138 -6 0 -42 9 -80 19 -39 11 -81 22 -95 25 -267 56 -313 63 -470 81 -30 3
-68 8 -85 10 -126 17 -453 22 -665 10 -186 -10 -194 -11 -400 -41 -709 -102
-1381 -384 -1860 -780 -149 -123 -284 -261 -439 -449 -35 -42 -150 -213 -193
-285 -87 -148 -217 -422 -233 -490 -2 -8 -12 -40 -23 -70 -47 -129 -109 -373
-127 -495 -3 -23 -7 -50 -9 -60 -2 -11 -7 -49 -11 -85 -4 -36 -9 -73 -11 -84
-21 -109 -20 -574 1 -741 2 -16 6 -57 10 -90 3 -33 10 -82 16 -110 5 -27 11
-59 13 -70 2 -11 9 -40 16 -65 7 -25 13 -49 14 -55 2 -5 9 -30 16 -55 8 -25
14 -47 15 -50 82 -308 283 -617 550 -846 71 -62 237 -184 248 -184 4 0 30 -15
59 -34 157 -100 577 -273 757 -311 9 -2 63 -15 121 -28 58 -14 119 -28 135
-31 17 -2 55 -9 85 -15 30 -6 66 -13 79 -16 13 -2 49 -7 80 -11 31 -3 58 -8
61 -9 3 -2 39 -6 80 -10 41 -4 83 -9 93 -11 77 -14 413 -20 537 -9 488 43 834
213 1101 540 171 211 299 444 594 1080 53 116 102 216 107 223 6 6 8 12 5 12
-6 0 281 572 319 636 l18 32 65 -43 c132 -85 177 -113 211 -133 19 -11 85 -49
147 -85 203 -119 420 -239 648 -357 164 -85 453 -230 459 -230 2 0 68 -31 147
-69 485 -231 1343 -579 1819 -738 41 -13 84 -28 95 -33 32 -14 429 -144 545
-179 58 -18 116 -36 130 -41 27 -10 367 -106 495 -140 131 -35 148 -40 190
-49 22 -5 69 -17 105 -26 36 -9 74 -19 85 -22 11 -2 29 -6 40 -8 11 -2 58 -12
105 -23 47 -11 99 -23 115 -25 17 -3 53 -10 80 -16 67 -15 380 -70 430 -76 22
-3 63 -8 90 -11 78 -11 95 -13 165 -19 36 -4 75 -8 88 -10 49 -8 294 -18 432
-18 239 -1 325 9 484 55 74 21 259 105 264 119 2 5 9 9 14 9 34 0 231 173 319
280 263 317 352 734 229 1071 -68 186 -123 258 -493 632 l-295 299 -86 -46
c-171 -90 -358 -146 -542 -163 -142 -13 -513 -6 -603 12 -11 2 -46 6 -78 10
-32 3 -67 8 -78 10 -21 5 -77 13 -135 21 -19 2 -78 13 -130 24 -52 11 -106 21
-120 24 -35 6 -158 34 -200 45 -55 15 -159 42 -178 46 -101 22 -551 164 -787
250 -119 43 -458 177 -533 211 -29 13 -54 24 -56 24 -10 0 -392 178 -531 247
-459 229 -782 417 -1215 707 -155 104 -485 345 -607 443 l-22 18 91 120 c50
66 101 134 114 150 132 170 361 466 398 512 25 32 50 63 54 68 43 56 85 109
122 155 25 31 59 73 75 94 17 22 57 73 90 115 33 42 121 153 194 246 74 94
138 172 143 173 4 2 8 10 8 17 0 7 4 15 8 17 20 8 699 895 913 1193 208 289
472 676 586 860 87 140 199 322 209 340 6 11 42 74 81 140 430 736 720 1459
857 2135 39 195 49 277 49 410 0 88 -10 248 -17 259 -2 3 -7 28 -11 56 -23
173 -136 465 -246 635 -21 33 -39 63 -39 65 0 9 -125 172 -183 240 -366 424
-928 778 -1572 991 -196 64 -555 154 -555 138z m-4670 -10299 c0 -9 -109 -166
-226 -328 -380 -520 -641 -760 -845 -775 -119 -8 -210 40 -272 146 -76 129
-76 283 -1 403 30 49 155 174 229 230 228 172 524 288 805 315 36 4 66 7 68 9
7 5 242 5 242 0z"/>
</g>
</svg>
